<svg width="1001" height="1000" viewBox="0 0 1001 1000" fill="none" xmlns="http://www.w3.org/2000/svg">
<path d="M1 716.128C1 713.367 3.23858 711.128 6 711.128H60.5238V995C60.5238 997.761 58.2852 1000 55.5238 1000H6C3.23858 1000 1 997.761 1 995V716.128Z" fill="#AB57FF"/>
<path d="M941.476 711.128H996C998.761 711.128 1001 713.367 1001 716.128V995C1001 997.761 998.761 1000 996 1000H946.476C943.715 1000 941.476 997.761 941.476 995V711.128Z" fill="#AB57FF"/>
<path d="M1 768.903L1 716.129C1 713.368 3.23858 711.129 6 711.129L996 711.129C998.761 711.129 1001 713.368 1001 716.129V768.903L1 768.903Z" fill="#AB57FF"/>
<path d="M4.00002 653C2.34317 653 1 651.657 1 650L1 620.225L87.3095 596L996 596C998.761 596 1001 598.239 1001 601V648C1001 650.761 998.761 653 996 653L4.00002 653Z" fill="#AB57FF"/>
<path d="M54.611 648.672L0.73278 620.134L757.449 2.40014C759.59 0.652518 762.793 0.930833 764.601 3.02152L796.749 40.2083C798.557 42.3002 798.282 45.4123 796.134 47.1544L54.611 648.672Z" fill="#AB57FF"/>
</svg>
