<svg width="42" height="42" viewBox="0 0 42 42" fill="none" xmlns="http://www.w3.org/2000/svg">
<path d="M11.5861 2.17236H30.4137C30.7978 2.17236 31.1662 2.32495 31.4378 2.59655C31.7094 2.86816 31.862 3.23653 31.862 3.62064C31.862 4.00475 31.7094 4.37312 31.4378 4.64473C31.1662 4.91633 30.7978 5.06892 30.4137 5.06892H11.5861C11.202 5.06892 10.8336 4.91633 10.562 4.64473C10.2904 4.37312 10.1378 4.00475 10.1378 3.62064C10.1378 3.23653 10.2904 2.86816 10.562 2.59655C10.8336 2.32495 11.202 2.17236 11.5861 2.17236ZM10.1378 6.51719H31.862C32.2461 6.51719 32.6144 6.66978 32.8861 6.94138C33.1577 7.21299 33.3102 7.58136 33.3102 7.96547C33.3102 8.34957 33.1577 8.71795 32.8861 8.98955C32.6144 9.26116 32.2461 9.41374 31.862 9.41374H10.1378C9.75372 9.41374 9.38535 9.26116 9.11374 8.98955C8.84214 8.71795 8.68955 8.34957 8.68955 7.96547C8.68955 7.58136 8.84214 7.21299 9.11374 6.94138C9.38535 6.66978 9.75372 6.51719 10.1378 6.51719V6.51719ZM8.68955 10.862H33.3102C33.6943 10.862 34.0627 11.0146 34.3343 11.2862C34.6059 11.5578 34.7585 11.9262 34.7585 12.3103C34.7585 12.6944 34.6059 13.0628 34.3343 13.3344C34.0627 13.606 33.6943 13.7586 33.3102 13.7586H8.68955C8.30545 13.7586 7.93707 13.606 7.66547 13.3344C7.39386 13.0628 7.24128 12.6944 7.24128 12.3103C7.24128 11.9262 7.39386 11.5578 7.66547 11.2862C7.93707 11.0146 8.30545 10.862 8.68955 10.862V10.862ZM34.7585 41.2758H7.24128C5.64383 41.2758 4.34473 39.9767 4.34473 38.3793V18.1034C4.34473 16.506 5.64383 15.2068 7.24128 15.2068H34.7585C36.356 15.2068 37.6551 16.506 37.6551 18.1034V38.3793C37.6551 39.9767 36.356 41.2758 34.7585 41.2758ZM7.24128 18.1034V38.3793H34.7585V18.1034H7.24128Z" fill="#90F5AC"/>
<path d="M16.0947 37.2584H15.2417C14.1468 37.2584 13.1359 36.8022 12.4682 36.0057C11.7919 35.199 11.5153 34.1041 11.7108 33.0019C12.0816 30.8976 14.0295 29.2495 16.1454 29.2495H17.6936V22.7177C17.6936 21.2246 18.8131 19.9863 20.2991 19.8357L25.8402 19.2766C26.2429 19.2359 26.6498 19.2801 27.0344 19.4064C27.4191 19.5326 27.773 19.738 28.0733 20.0095C28.3737 20.2809 28.6138 20.6123 28.7782 20.9822C28.9426 21.3521 29.0277 21.7524 29.0278 22.1572V24.3601C29.0301 25.0788 28.7642 25.7725 28.2821 26.3055C27.7999 26.8386 27.1363 27.1725 26.4209 27.2421L20.5902 27.8316V32.8281C20.5902 32.9295 20.58 33.028 20.5598 33.1221C20.5511 33.3741 20.5409 33.4321 20.5293 33.5045C20.1571 35.6103 18.2092 37.2584 16.0947 37.2584V37.2584ZM16.144 32.146C15.4285 32.146 14.6899 32.7804 14.561 33.5059C14.5161 33.7666 14.5596 33.994 14.687 34.1446C14.8376 34.3257 15.0722 34.3619 15.2417 34.3619H16.0947C16.8087 34.3619 17.5473 33.7275 17.6762 33.0019L17.682 32.146H16.144V32.146ZM26.1313 22.1572L20.5902 22.7177V24.9191L26.1313 24.3586V22.1572V22.1572Z" fill="#90F5AC"/>
</svg>
